<?xml version="1.0" encoding="UTF-8"?><!-- Generator: Adobe Illustrator 23.0.4, SVG Export Plug-In . SVG Version: 6.00 Build 0)  --><svg xmlns="http://www.w3.org/2000/svg" enable-background="new 0 0 243.1 178.6" id="Layer_1" version="1.1" viewBox="0 0 243.1 178.6" x="0px" xml:space="preserve" y="0px">
<g>
	<linearGradient gradientUnits="userSpaceOnUse" id="SVGID_1_" x1="-2.7285e-12" x2="207.65" y1="76.684" y2="76.684">
		<stop offset="0" stop-color="#FF3E89"/>
		<stop offset=".9984" stop-color="#9584FF"/>
	</linearGradient>
	<path d="m187.2 49c1.4-3.9 2.1-8.2 2-12.6-0.2-19.5-15.9-35.5-35.2-36.4-11.4-0.5-21.8 4.3-28.9 12-6.5 7.1-17.3 8.2-25.4 3.1-10.9-6.9-24-10.6-37.9-9.9-33.2 1.6-60.1 28.5-61.7 61.7-1.8 37.3 28 68.1 64.9 68.1 10.7 0 20.9-2.6 29.8-7.2 8.8-4.6 19.5-2.2 25.4 5.8 10.6 14.4 29 22.7 48.9 18.7 17.1-3.4 34.2-20.6 37.6-37.8 3.4-17.7-2.8-34.2-14.3-45-5.6-5.2-7.7-13.3-5.2-20.5zm-57.1 17.2l-0.2 0.2v-0.4c0 0.1 0.1 0.2 0.2 0.2z" fill="url(#SVGID_1_)"/>
	<g id="change1_1">
		<path d="m117.2 178.6c-0.9 0-1.8 0-2.7-0.1-11.1-1.2-20-10.2-21.1-21.4v-0.4c-0.9-11.6-8-21.6-18.5-26.1-15.3-6.6-34.1-20.5-36.9-48.8-1.3-13.7 3.4-27 13.4-37.4 11.8-12.4 29.3-19.2 46.7-18.3 29 1.5 41.5 18.1 46.9 31.7 4.2 10.6 16.2 15.9 26.8 11.8 6.2-2.4 11.4-3.5 15.6-3.5 30.6 0 55.6 24.9 55.8 55.5 0.1 28.6-21.9 52.6-51.3 55.7-17.2 1.8-30.2-4.2-38.1-9.7-5.8-4-13.6-2.9-18.1 2.4-4.7 5.5-11.5 8.6-18.5 8.6zm-22.1-151.6c-16.2 0-32 6.6-42.9 18-9.8 10.2-14.4 23.2-13.1 36.7 2.7 27.9 21.2 41.5 36.3 48 10.8 4.7 18.1 15 19.1 27v0.4c1 10.7 9.5 19.3 20.2 20.5 7.7 0.9 15.2-2.2 20.1-8 4.8-5.8 13.2-6.9 19.4-2.6 7.8 5.3 20.6 11.3 37.5 9.5 28.9-3.1 50.6-26.6 50.5-54.7-0.1-30-24.7-54.5-54.8-54.5-4.1 0-9.2 1.2-15.2 3.5-11.1 4.2-23.7-1.3-28-12.4-5.3-13.4-17.6-29.6-46-31.1-1.1-0.3-2.1-0.3-3.1-0.3z" fill="#fff"/>
	</g>
	<g id="change1_2"><path d="m189.6 147.6h-8.5v-8.5c0-0.6-0.5-1.1-1.1-1.1s-1.1 0.5-1.1 1.1v8.5h-8.5c-0.6 0-1.1 0.5-1.1 1.1s0.5 1.1 1.1 1.1h8.5v8.5c0 0.6 0.5 1.1 1.1 1.1s1.1-0.5 1.1-1.1v-8.5h8.5c0.6 0 1.1-0.5 1.1-1.1s-0.5-1.1-1.1-1.1z" fill="#fff"/></g>
	<g id="change1_3"><path d="m37.3 16.2h-8.5v-8.4c0-0.6-0.5-1.1-1.1-1.1s-1.1 0.5-1.1 1.1v8.5h-8.5c-0.6 0-1.1 0.5-1.1 1.1s0.5 1.1 1.1 1.1h8.5v8.5c0 0.6 0.5 1.1 1.1 1.1s1.1-0.5 1.1-1.1v-8.5h8.5c0.6 0 1.1-0.5 1.1-1.1s-0.5-1.2-1.1-1.2z" fill="#fff"/></g>
	<g id="change1_4"><path d="m79.2 156.2h-6.7v-6.7c0-0.5-0.4-0.9-0.9-0.9s-0.9 0.4-0.9 0.9v6.7h-6.7c-0.5 0-0.9 0.4-0.9 0.9s0.4 0.9 0.9 0.9h6.7v6.7c0 0.5 0.4 0.9 0.9 0.9s0.9-0.4 0.9-0.9v-6.7h6.7c0.5 0 0.9-0.4 0.9-0.9-0.1-0.5-0.5-0.9-0.9-0.9z" fill="#fff"/></g>
</g>
</svg>